<?xml version="1.0" encoding="UTF-8" standalone="no"?>
<!DOCTYPE svg PUBLIC "-//W3C//DTD SVG 1.0//EN"
 "http://www.w3.org/TR/2001/REC-SVG-20010904/DTD/svg10.dtd" [
 <!ATTLIST svg xmlns:xlink CDATA #FIXED "http://www.w3.org/1999/xlink">
]>
<!-- Generated by Graphviz version 2.20.2 (Tue Jan 14 19:38:44 UTC 2014)
     For user: (chandru) Chandru,,, -->
<!-- Title: controllers_diagram Pages: 1 -->
<svg width="500pt" height="212pt"
 viewBox="0.00 0.00 500.00 212.00" xmlns="http://www.w3.org/2000/svg" xmlns:xlink="http://www.w3.org/1999/xlink">
<g id="graph0" class="graph" transform="scale(1 1) rotate(0) translate(4 208)">
<title>controllers_diagram</title>
<polygon style="fill:white;stroke:white;" points="-4,4 -4,-208 496,-208 496,4 -4,4"/>
<!-- _diagram_info -->
<g id="node1" class="node"><title>_diagram_info</title>
<text text-anchor="start" x="250.5" y="-187.8" style="font-family:Times New Roman;font-size:13.00;">Controllers diagram</text>
<text text-anchor="start" x="250.5" y="-170.8" style="font-family:Times New Roman;font-size:13.00;">Date: Apr 10 2014 &#45; 02:02</text>
<text text-anchor="start" x="250.5" y="-153.8" style="font-family:Times New Roman;font-size:13.00;">Migration version: 20140409200201</text>
<text text-anchor="start" x="250.5" y="-136.8" style="font-family:Times New Roman;font-size:13.00;">Generated by RailRoady 1.1.1</text>
<text text-anchor="start" x="250.5" y="-119.8" style="font-family:Times New Roman;font-size:13.00;">http://railroady.prestonlee.com</text>
</g>
<!-- HomeController -->
<g id="node2" class="node"><title>HomeController</title>
<polyline style="fill:none;stroke:black;" points="13,-2 114,-2 "/>
<path style="fill:none;stroke:black;" d="M114,-2C120,-2 126,-8 126,-14"/>
<polyline style="fill:none;stroke:black;" points="126,-14 126,-88 "/>
<path style="fill:none;stroke:black;" d="M126,-88C126,-94 120,-100 114,-100"/>
<polyline style="fill:none;stroke:black;" points="114,-100 13,-100 "/>
<path style="fill:none;stroke:black;" d="M13,-100C7,-100 1,-94 1,-88"/>
<polyline style="fill:none;stroke:black;" points="1,-88 1,-14 "/>
<path style="fill:none;stroke:black;" d="M1,-14C1,-8 7,-2 13,-2"/>
<text text-anchor="middle" x="63" y="-82.9" style="font-family:Times New Roman;font-size:14.00;">HomeController</text>
<polyline style="fill:none;stroke:black;" points="1,-75 126,-75 "/>
<polyline style="fill:none;stroke:black;" points="1,-51 126,-51 "/>
<polyline style="fill:none;stroke:black;" points="1,-27 126,-27 "/>
<text text-anchor="start" x="8.5" y="-9.9" style="font-family:Times New Roman;font-size:14.00;">_layout</text>
</g>
<!-- ApplicationController -->
<g id="node3" class="node"><title>ApplicationController</title>
<polyline style="fill:none;stroke:black;" points="165,-0 387,-0 "/>
<path style="fill:none;stroke:black;" d="M387,-0C393,-0 399,-6 399,-12"/>
<polyline style="fill:none;stroke:black;" points="399,-12 399,-87 "/>
<path style="fill:none;stroke:black;" d="M399,-87C399,-93 393,-99 387,-99"/>
<polyline style="fill:none;stroke:black;" points="387,-99 165,-99 "/>
<path style="fill:none;stroke:black;" d="M165,-99C159,-99 153,-93 153,-87"/>
<polyline style="fill:none;stroke:black;" points="153,-87 153,-12 "/>
<path style="fill:none;stroke:black;" d="M153,-12C153,-6 159,-0 165,-0"/>
<text text-anchor="middle" x="276" y="-81.9" style="font-family:Times New Roman;font-size:14.00;">ApplicationController</text>
<polyline style="fill:none;stroke:black;" points="153,-74 399,-74 "/>
<text text-anchor="start" x="161" y="-56.9" style="font-family:Times New Roman;font-size:14.00;">_one_time_conditions_valid_126?</text>
<polyline style="fill:none;stroke:black;" points="153,-49 399,-49 "/>
<polyline style="fill:none;stroke:black;" points="153,-25 399,-25 "/>
<text text-anchor="start" x="161" y="-7.9" style="font-family:Times New Roman;font-size:14.00;">_layout</text>
</g>
<!-- ApplicationController&#45;&gt;HomeController -->
<g id="edge2" class="edge"><title>ApplicationController&#45;&gt;HomeController</title>
<path style="fill:none;stroke:black;" d="M143,-51C137,-51 132,-51 126,-51"/>
<polygon style="fill:none;stroke:black;" points="143,-54.5001 153,-51 143,-47.5001 143,-54.5001"/>
</g>
</g>
</svg>
