<?xml version="1.0" encoding="UTF-8" standalone="no"?>
<!DOCTYPE svg PUBLIC "-//W3C//DTD SVG 1.0//EN"
 "http://www.w3.org/TR/2001/REC-SVG-20010904/DTD/svg10.dtd" [
 <!ATTLIST svg xmlns:xlink CDATA #FIXED "http://www.w3.org/1999/xlink">
]>
<!-- Generated by Graphviz version 2.20.2 (Tue Jan 14 19:38:44 UTC 2014)
     For user: (chandru) Chandru,,, -->
<!-- Title: models_diagram Pages: 1 -->
<svg width="850pt" height="340pt"
 viewBox="0.00 0.00 850.00 340.00" xmlns="http://www.w3.org/2000/svg" xmlns:xlink="http://www.w3.org/1999/xlink">
<g id="graph0" class="graph" transform="scale(1 1) rotate(0) translate(4 336)">
<title>models_diagram</title>
<polygon style="fill:white;stroke:white;" points="-4,4 -4,-336 846,-336 846,4 -4,4"/>
<!-- _diagram_info -->
<g id="node1" class="node"><title>_diagram_info</title>
<text text-anchor="start" x="34.5" y="-315.8" style="font-family:Times New Roman;font-size:13.00;">Models diagram</text>
<text text-anchor="start" x="34.5" y="-298.8" style="font-family:Times New Roman;font-size:13.00;">Date: Apr 10 2014 &#45; 02:02</text>
<text text-anchor="start" x="34.5" y="-281.8" style="font-family:Times New Roman;font-size:13.00;">Migration version: 20140409200201</text>
<text text-anchor="start" x="34.5" y="-264.8" style="font-family:Times New Roman;font-size:13.00;">Generated by RailRoady 1.1.1</text>
<text text-anchor="start" x="34.5" y="-247.8" style="font-family:Times New Roman;font-size:13.00;">http://railroady.prestonlee.com</text>
</g>
<!-- City -->
<g id="node2" class="node"><title>City</title>
<ellipse style="fill:none;stroke:black;" cx="301" cy="-182" rx="30.0736" ry="18"/>
<text text-anchor="middle" x="301" y="-177.9" style="font-family:Times New Roman;font-size:14.00;">City</text>
</g>
<!-- User -->
<g id="node4" class="node"><title>User</title>
<ellipse style="fill:none;stroke:black;" cx="388" cy="-108" rx="32.8565" ry="18"/>
<text text-anchor="middle" x="388" y="-103.9" style="font-family:Times New Roman;font-size:14.00;">User</text>
</g>
<!-- City&#45;&gt;User -->
<g id="edge2" class="edge"><title>City&#45;&gt;User</title>
<path style="fill:none;stroke:#9b8433;" d="M325,-162C336,-151 350,-140 362,-130"/>
<ellipse style="fill:none;stroke:#9b8433;" cx="322.073" cy="-164.439" rx="4.00002" ry="4.00002"/>
<polygon style="fill:#9b8433;stroke:#9b8433;" points="362.474,-129.585 372.963,-126.387 366.237,-126.293 370,-123 370,-123 370,-123 366.237,-126.293 367.037,-119.613 362.474,-129.585 362.474,-129.585"/>
</g>
<!-- Location -->
<g id="node12" class="node"><title>Location</title>
<ellipse style="fill:none;stroke:black;" cx="285" cy="-108" rx="52.1162" ry="18"/>
<text text-anchor="middle" x="285" y="-103.9" style="font-family:Times New Roman;font-size:14.00;">Location</text>
</g>
<!-- City&#45;&gt;Location -->
<g id="edge4" class="edge"><title>City&#45;&gt;Location</title>
<path style="fill:none;stroke:#0e3388;" d="M295,-156C294,-149 292,-142 291,-136"/>
<ellipse style="fill:none;stroke:#0e3388;" cx="296.03" cy="-160.119" rx="4.00001" ry="4.00001"/>
<polygon style="fill:#0e3388;stroke:#0e3388;" points="290.961,-135.806 293.413,-125.117 289.981,-130.903 289,-126 289,-126 289,-126 289.981,-130.903 284.587,-126.883 290.961,-135.806 290.961,-135.806"/>
</g>
<!-- MealType -->
<g id="node3" class="node"><title>MealType</title>
<ellipse style="fill:none;stroke:black;" cx="122" cy="-182" rx="55.0898" ry="18"/>
<text text-anchor="middle" x="122" y="-177.9" style="font-family:Times New Roman;font-size:14.00;">MealType</text>
</g>
<!-- Message -->
<g id="node5" class="node"><title>Message</title>
<ellipse style="fill:none;stroke:black;" cx="524" cy="-18" rx="52.1162" ry="18"/>
<text text-anchor="middle" x="524" y="-13.9" style="font-family:Times New Roman;font-size:14.00;">Message</text>
</g>
<!-- User&#45;&gt;Message -->
<g id="edge12" class="edge"><title>User&#45;&gt;Message</title>
<path style="fill:none;stroke:#4db26c;" d="M427,-99C455,-93 491,-82 502,-72 509,-65 515,-55 518,-46"/>
<ellipse style="fill:none;stroke:#4db26c;" cx="422.881" cy="-100.03" rx="4.00001" ry="4.00001"/>
<polygon style="fill:#4db26c;stroke:#4db26c;" points="518.126,-45.5783 525.31,-37.2931 519.563,-40.7891 521,-36 521,-36 521,-36 519.563,-40.7891 516.69,-34.7069 518.126,-45.5783 518.126,-45.5783"/>
<text text-anchor="middle" x="555" y="-58.9" style="font-family:Times New Roman;font-size:14.00;">messages_in</text>
</g>
<!-- User&#45;&gt;Message -->
<g id="edge14" class="edge"><title>User&#45;&gt;Message</title>
<path style="fill:none;stroke:#7616c7;" d="M386,-82C387,-72 390,-62 397,-54 407,-43 438,-34 467,-28"/>
<ellipse style="fill:none;stroke:#7616c7;" cx="386" cy="-86" rx="4" ry="4"/>
<polygon style="fill:#7616c7;stroke:#7616c7;" points="467.194,-27.9612 477.883,-30.4126 472.097,-26.9806 477,-26 477,-26 477,-26 472.097,-26.9806 476.117,-21.5874 467.194,-27.9612 467.194,-27.9612"/>
<text text-anchor="middle" x="445" y="-58.9" style="font-family:Times New Roman;font-size:14.00;">messages_out</text>
</g>
<!-- PostRequirement -->
<g id="node6" class="node"><title>PostRequirement</title>
<ellipse style="fill:none;stroke:black;" cx="93" cy="-18" rx="93.1142" ry="18"/>
<text text-anchor="middle" x="93" y="-13.9" style="font-family:Times New Roman;font-size:14.00;">PostRequirement</text>
</g>
<!-- User&#45;&gt;PostRequirement -->
<g id="edge10" class="edge"><title>User&#45;&gt;PostRequirement</title>
<path style="fill:none;stroke:#7e1a3e;" d="M355,-93C352,-92 349,-91 346,-90 311,-78 220,-53 158,-36"/>
<ellipse style="fill:none;stroke:#7e1a3e;" cx="359.255" cy="-94.5955" rx="4.00001" ry="4.00001"/>
<polygon style="fill:#7e1a3e;stroke:#7e1a3e;" points="157.578,-35.8735 149.293,-28.6898 152.789,-34.4368 148,-33 148,-33 148,-33 152.789,-34.4368 146.707,-37.3102 157.578,-35.8735 157.578,-35.8735"/>
</g>
<!-- Activity -->
<g id="node10" class="node"><title>Activity</title>
<ellipse style="fill:none;stroke:black;" cx="305" cy="-18" rx="47.9469" ry="18"/>
<text text-anchor="middle" x="305" y="-13.9" style="font-family:Times New Roman;font-size:14.00;">Activity</text>
</g>
<!-- User&#45;&gt;Activity -->
<g id="edge16" class="edge"><title>User&#45;&gt;Activity</title>
<path style="fill:none;stroke:#48cdb1;" d="M376,-83C371,-73 364,-63 357,-54 352,-49 346,-43 339,-39"/>
<ellipse style="fill:none;stroke:#48cdb1;" cx="378.015" cy="-86.527" rx="4.00002" ry="4.00002"/>
<polygon style="fill:#48cdb1;stroke:#48cdb1;" points="339,-39 333.7,-29.4 335,-36 331,-33 331,-33 331,-33 335,-36 328.3,-36.6 339,-39 339,-39"/>
</g>
<!-- User&#45;&gt;Activity -->
<g id="edge18" class="edge"><title>User&#45;&gt;Activity</title>
<path style="fill:none;stroke:#06a835;" d="M355,-93C352,-92 349,-91 346,-90 326,-81 313,-89 302,-72 297,-65 296,-55 297,-46"/>
<ellipse style="fill:none;stroke:#06a835;" cx="358.527" cy="-95.0154" rx="4.00002" ry="4.00002"/>
<polygon style="fill:#06a835;stroke:#06a835;" points="297.039,-45.8058 303.413,-36.8826 298.019,-40.9029 299,-36 299,-36 299,-36 298.019,-40.9029 294.587,-35.1174 297.039,-45.8058 297.039,-45.8058"/>
<text text-anchor="middle" x="327" y="-58.9" style="font-family:Times New Roman;font-size:14.00;">contact</text>
</g>
<!-- Service -->
<g id="node7" class="node"><title>Service</title>
<ellipse style="fill:none;stroke:black;" cx="395" cy="-182" rx="45.8622" ry="18"/>
<text text-anchor="middle" x="395" y="-177.9" style="font-family:Times New Roman;font-size:14.00;">Service</text>
</g>
<!-- Region -->
<g id="node8" class="node"><title>Region</title>
<ellipse style="fill:none;stroke:black;" cx="503" cy="-182" rx="43.7776" ry="18"/>
<text text-anchor="middle" x="503" y="-177.9" style="font-family:Times New Roman;font-size:14.00;">Region</text>
</g>
<!-- FoodType -->
<g id="node9" class="node"><title>FoodType</title>
<ellipse style="fill:none;stroke:black;" cx="620" cy="-182" rx="55.0898" ry="18"/>
<text text-anchor="middle" x="620" y="-177.9" style="font-family:Times New Roman;font-size:14.00;">FoodType</text>
</g>
<!-- Provider -->
<g id="node11" class="node"><title>Provider</title>
<ellipse style="fill:none;stroke:black;" cx="782" cy="-182" rx="50.9221" ry="18"/>
<text text-anchor="middle" x="782" y="-177.9" style="font-family:Times New Roman;font-size:14.00;">Provider</text>
</g>
<!-- ActiveRecord::Base -->
<g id="node15" class="node"><title>ActiveRecord::Base</title>
<ellipse style="fill:none;stroke:black;" cx="395" cy="-285" rx="102.148" ry="18"/>
<text text-anchor="middle" x="395" y="-280.9" style="font-family:Times New Roman;font-size:14.00;">ActiveRecord::Base</text>
</g>
<!-- ActiveRecord::Base&#45;&gt;City -->
<g id="edge6" class="edge"><title>ActiveRecord::Base&#45;&gt;City</title>
<path style="fill:none;stroke:black;" d="M372,-260C354,-241 331,-215 315,-198"/>
<polygon style="fill:none;stroke:black;" points="369.454,-262.404 379,-267 374.404,-257.454 369.454,-262.404"/>
</g>
<!-- ActiveRecord::Base&#45;&gt;MealType -->
<g id="edge8" class="edge"><title>ActiveRecord::Base&#45;&gt;MealType</title>
<path style="fill:none;stroke:black;" d="M352,-264C331,-255 306,-245 284,-238 243,-225 230,-234 191,-220 176,-214 160,-206 147,-198"/>
<polygon style="fill:none;stroke:black;" points="350.44,-267.137 361,-268 353.283,-260.74 350.44,-267.137"/>
</g>
<!-- ActiveRecord::Base&#45;&gt;User -->
<g id="edge20" class="edge"><title>ActiveRecord::Base&#45;&gt;User</title>
<path style="fill:none;stroke:black;" d="M498,-277C602,-264 741,-234 684,-164 651,-124 491,-112 421,-109"/>
<polygon style="fill:none;stroke:black;" points="497.602,-273.522 488,-278 498.299,-280.488 497.602,-273.522"/>
</g>
<!-- ActiveRecord::Base&#45;&gt;Message -->
<g id="edge22" class="edge"><title>ActiveRecord::Base&#45;&gt;Message</title>
<path style="fill:none;stroke:black;" d="M503,-279C621,-271 799,-251 842,-200 923,-101 678,-45 571,-26"/>
<polygon style="fill:none;stroke:black;" points="502.602,-275.522 493,-280 503.299,-282.488 502.602,-275.522"/>
</g>
<!-- ActiveRecord::Base&#45;&gt;PostRequirement -->
<g id="edge24" class="edge"><title>ActiveRecord::Base&#45;&gt;PostRequirement</title>
<path style="fill:none;stroke:black;" d="M352,-264C331,-255 307,-244 284,-238 235,-223 91,-238 58,-200 18,-152 59,-72 81,-36"/>
<polygon style="fill:none;stroke:black;" points="350.44,-267.137 361,-268 353.283,-260.74 350.44,-267.137"/>
</g>
<!-- ActiveRecord::Base&#45;&gt;Service -->
<g id="edge26" class="edge"><title>ActiveRecord::Base&#45;&gt;Service</title>
<path style="fill:none;stroke:black;" d="M395,-257C395,-239 395,-216 395,-200"/>
<polygon style="fill:none;stroke:black;" points="391.5,-257 395,-267 398.5,-257 391.5,-257"/>
</g>
<!-- ActiveRecord::Base&#45;&gt;Region -->
<g id="edge28" class="edge"><title>ActiveRecord::Base&#45;&gt;Region</title>
<path style="fill:none;stroke:black;" d="M421,-260C441,-241 468,-216 486,-199"/>
<polygon style="fill:none;stroke:black;" points="418.596,-257.454 414,-267 423.546,-262.404 418.596,-257.454"/>
</g>
<!-- ActiveRecord::Base&#45;&gt;FoodType -->
<g id="edge30" class="edge"><title>ActiveRecord::Base&#45;&gt;FoodType</title>
<path style="fill:none;stroke:black;" d="M441,-264C485,-244 550,-215 588,-197"/>
<polygon style="fill:none;stroke:black;" points="439.717,-260.74 432,-268 442.56,-267.137 439.717,-260.74"/>
</g>
<!-- ActiveRecord::Base&#45;&gt;Activity -->
<g id="edge32" class="edge"><title>ActiveRecord::Base&#45;&gt;Activity</title>
<path style="fill:none;stroke:black;" d="M348,-264C324,-252 296,-237 272,-220 233,-192 232,-172 224,-126 221,-110 217,-104 224,-90 235,-65 259,-46 278,-33"/>
<polygon style="fill:none;stroke:black;" points="346.44,-267.137 357,-268 349.283,-260.74 346.44,-267.137"/>
</g>
<!-- ActiveRecord::Base&#45;&gt;Provider -->
<g id="edge34" class="edge"><title>ActiveRecord::Base&#45;&gt;Provider</title>
<path style="fill:none;stroke:black;" d="M491,-274C556,-264 644,-248 717,-220 731,-214 746,-206 758,-198"/>
<polygon style="fill:none;stroke:black;" points="490.602,-270.522 481,-275 491.299,-277.488 490.602,-270.522"/>
</g>
<!-- ActiveRecord::Base&#45;&gt;Location -->
<g id="edge36" class="edge"><title>ActiveRecord::Base&#45;&gt;Location</title>
<path style="fill:none;stroke:black;" d="M340,-265C311,-251 278,-230 262,-200 248,-176 262,-145 273,-126"/>
<polygon style="fill:none;stroke:black;" points="338.44,-268.137 349,-269 341.283,-261.74 338.44,-268.137"/>
</g>
</g>
</svg>
