<?xml version="1.0" encoding="UTF-8" standalone="no"?>
<!DOCTYPE svg PUBLIC "-//W3C//DTD SVG 1.0//EN"
 "http://www.w3.org/TR/2001/REC-SVG-20010904/DTD/svg10.dtd" [
 <!ATTLIST svg xmlns:xlink CDATA #FIXED "http://www.w3.org/1999/xlink">
]>
<!-- Generated by Graphviz version 2.20.2 (Tue Jan 14 19:38:44 UTC 2014)
     For user: (chandru) Chandru,,, -->
<!-- Title: models_diagram Pages: 1 -->
<svg width="1320pt" height="1080pt"
 viewBox="0.00 0.00 1320.00 1080.00" xmlns="http://www.w3.org/2000/svg" xmlns:xlink="http://www.w3.org/1999/xlink">
<g id="graph0" class="graph" transform="scale(1 1) rotate(0) translate(4 1076)">
<title>models_diagram</title>
<polygon style="fill:white;stroke:white;" points="-4,4 -4,-1076 1316,-1076 1316,4 -4,4"/>
<!-- _diagram_info -->
<g id="node1" class="node"><title>_diagram_info</title>
<text text-anchor="start" x="276.5" y="-1055.8" style="font-family:Times New Roman;font-size:13.00;">Models diagram</text>
<text text-anchor="start" x="276.5" y="-1038.8" style="font-family:Times New Roman;font-size:13.00;">Date: Apr 10 2014 &#45; 02:02</text>
<text text-anchor="start" x="276.5" y="-1021.8" style="font-family:Times New Roman;font-size:13.00;">Migration version: 20140409200201</text>
<text text-anchor="start" x="276.5" y="-1004.8" style="font-family:Times New Roman;font-size:13.00;">Generated by RailRoady 1.1.1</text>
<text text-anchor="start" x="276.5" y="-987.8" style="font-family:Times New Roman;font-size:13.00;">http://railroady.prestonlee.com</text>
</g>
<!-- City -->
<g id="node2" class="node"><title>City</title>
<polyline style="fill:none;stroke:black;" points="385,-838 526,-838 "/>
<path style="fill:none;stroke:black;" d="M526,-838C532,-838 538,-844 538,-850"/>
<polyline style="fill:none;stroke:black;" points="538,-850 538,-927 "/>
<path style="fill:none;stroke:black;" d="M538,-927C538,-933 532,-939 526,-939"/>
<polyline style="fill:none;stroke:black;" points="526,-939 385,-939 "/>
<path style="fill:none;stroke:black;" d="M385,-939C379,-939 373,-933 373,-927"/>
<polyline style="fill:none;stroke:black;" points="373,-927 373,-850 "/>
<path style="fill:none;stroke:black;" d="M373,-850C373,-844 379,-838 385,-838"/>
<text text-anchor="middle" x="455" y="-921.9" style="font-family:Times New Roman;font-size:14.00;">City</text>
<polyline style="fill:none;stroke:black;" points="373,-914 538,-914 "/>
<text text-anchor="start" x="380.5" y="-897.4" style="font-family:Times New Roman;font-size:14.00;">id :integer</text>
<text text-anchor="start" x="380.5" y="-880.4" style="font-family:Times New Roman;font-size:14.00;">city_name :string</text>
<text text-anchor="start" x="380.5" y="-863.4" style="font-family:Times New Roman;font-size:14.00;">created_at :datetime</text>
<text text-anchor="start" x="380.5" y="-846.4" style="font-family:Times New Roman;font-size:14.00;">updated_at :datetime</text>
</g>
<!-- User -->
<g id="node4" class="node"><title>User</title>
<polyline style="fill:none;stroke:black;" points="529,-342 759,-342 "/>
<path style="fill:none;stroke:black;" d="M759,-342C765,-342 771,-348 771,-354"/>
<polyline style="fill:none;stroke:black;" points="771,-354 771,-788 "/>
<path style="fill:none;stroke:black;" d="M771,-788C771,-794 765,-800 759,-800"/>
<polyline style="fill:none;stroke:black;" points="759,-800 529,-800 "/>
<path style="fill:none;stroke:black;" d="M529,-800C523,-800 517,-794 517,-788"/>
<polyline style="fill:none;stroke:black;" points="517,-788 517,-354 "/>
<path style="fill:none;stroke:black;" d="M517,-354C517,-348 523,-342 529,-342"/>
<text text-anchor="middle" x="644" y="-782.9" style="font-family:Times New Roman;font-size:14.00;">User</text>
<polyline style="fill:none;stroke:black;" points="517,-775 771,-775 "/>
<text text-anchor="start" x="525" y="-757.9" style="font-family:Times New Roman;font-size:14.00;">id :integer</text>
<text text-anchor="start" x="525" y="-740.9" style="font-family:Times New Roman;font-size:14.00;">email :string</text>
<text text-anchor="start" x="525" y="-723.9" style="font-family:Times New Roman;font-size:14.00;">encrypted_password :string</text>
<text text-anchor="start" x="525" y="-706.9" style="font-family:Times New Roman;font-size:14.00;">reset_password_token :string</text>
<text text-anchor="start" x="525" y="-689.9" style="font-family:Times New Roman;font-size:14.00;">reset_password_sent_at :datetime</text>
<text text-anchor="start" x="525" y="-672.9" style="font-family:Times New Roman;font-size:14.00;">remember_created_at :datetime</text>
<text text-anchor="start" x="525" y="-655.9" style="font-family:Times New Roman;font-size:14.00;">sign_in_count :integer</text>
<text text-anchor="start" x="525" y="-638.9" style="font-family:Times New Roman;font-size:14.00;">current_sign_in_at :datetime</text>
<text text-anchor="start" x="525" y="-621.9" style="font-family:Times New Roman;font-size:14.00;">last_sign_in_at :datetime</text>
<text text-anchor="start" x="525" y="-604.9" style="font-family:Times New Roman;font-size:14.00;">current_sign_in_ip :string</text>
<text text-anchor="start" x="525" y="-587.9" style="font-family:Times New Roman;font-size:14.00;">last_sign_in_ip :string</text>
<text text-anchor="start" x="525" y="-570.9" style="font-family:Times New Roman;font-size:14.00;">confirmation_token :string</text>
<text text-anchor="start" x="525" y="-553.9" style="font-family:Times New Roman;font-size:14.00;">confirmed_at :datetime</text>
<text text-anchor="start" x="525" y="-536.9" style="font-family:Times New Roman;font-size:14.00;">confirmation_sent_at :datetime</text>
<text text-anchor="start" x="525" y="-519.9" style="font-family:Times New Roman;font-size:14.00;">unconfirmed_email :string</text>
<text text-anchor="start" x="525" y="-502.9" style="font-family:Times New Roman;font-size:14.00;">failed_attempts :integer</text>
<text text-anchor="start" x="525" y="-485.9" style="font-family:Times New Roman;font-size:14.00;">unlock_token :string</text>
<text text-anchor="start" x="525" y="-468.9" style="font-family:Times New Roman;font-size:14.00;">locked_at :datetime</text>
<text text-anchor="start" x="525" y="-451.9" style="font-family:Times New Roman;font-size:14.00;">name :string</text>
<text text-anchor="start" x="525" y="-434.9" style="font-family:Times New Roman;font-size:14.00;">dob :date</text>
<text text-anchor="start" x="525" y="-417.9" style="font-family:Times New Roman;font-size:14.00;">phone_no :string</text>
<text text-anchor="start" x="525" y="-400.9" style="font-family:Times New Roman;font-size:14.00;">city_id :integer</text>
<text text-anchor="start" x="525" y="-383.9" style="font-family:Times New Roman;font-size:14.00;">location :string</text>
<text text-anchor="start" x="525" y="-366.9" style="font-family:Times New Roman;font-size:14.00;">created_at :datetime</text>
<text text-anchor="start" x="525" y="-349.9" style="font-family:Times New Roman;font-size:14.00;">updated_at :datetime</text>
</g>
<!-- City&#45;&gt;User -->
<g id="edge2" class="edge"><title>City&#45;&gt;User</title>
<path style="fill:none;stroke:#4079e6;" d="M489,-831C496,-820 502,-810 508,-800 509,-798 510,-796 512,-794"/>
<ellipse style="fill:none;stroke:#4079e6;" cx="486.985" cy="-834.527" rx="4.00002" ry="4.00002"/>
<polygon style="fill:#4079e6;stroke:#4079e6;" points="512.144,-793.742 520.934,-787.185 514.572,-789.371 517,-785 517,-785 517,-785 514.572,-789.371 513.066,-782.815 512.144,-793.742 512.144,-793.742"/>
</g>
<!-- Location -->
<g id="node12" class="node"><title>Location</title>
<polyline style="fill:none;stroke:black;" points="347,-512 488,-512 "/>
<path style="fill:none;stroke:black;" d="M488,-512C494,-512 500,-518 500,-524"/>
<polyline style="fill:none;stroke:black;" points="500,-524 500,-618 "/>
<path style="fill:none;stroke:black;" d="M500,-618C500,-624 494,-630 488,-630"/>
<polyline style="fill:none;stroke:black;" points="488,-630 347,-630 "/>
<path style="fill:none;stroke:black;" d="M347,-630C341,-630 335,-624 335,-618"/>
<polyline style="fill:none;stroke:black;" points="335,-618 335,-524 "/>
<path style="fill:none;stroke:black;" d="M335,-524C335,-518 341,-512 347,-512"/>
<text text-anchor="middle" x="417" y="-612.9" style="font-family:Times New Roman;font-size:14.00;">Location</text>
<polyline style="fill:none;stroke:black;" points="335,-605 500,-605 "/>
<text text-anchor="start" x="342.5" y="-587.9" style="font-family:Times New Roman;font-size:14.00;">id :integer</text>
<text text-anchor="start" x="342.5" y="-570.9" style="font-family:Times New Roman;font-size:14.00;">location_name :string</text>
<text text-anchor="start" x="342.5" y="-553.9" style="font-family:Times New Roman;font-size:14.00;">city_id :integer</text>
<text text-anchor="start" x="342.5" y="-536.9" style="font-family:Times New Roman;font-size:14.00;">created_at :datetime</text>
<text text-anchor="start" x="342.5" y="-519.9" style="font-family:Times New Roman;font-size:14.00;">updated_at :datetime</text>
</g>
<!-- City&#45;&gt;Location -->
<g id="edge4" class="edge"><title>City&#45;&gt;Location</title>
<path style="fill:none;stroke:#894995;" d="M448,-830C441,-776 432,-697 425,-640"/>
<ellipse style="fill:none;stroke:#894995;" cx="448.504" cy="-834.031" rx="4.00001" ry="4.00001"/>
<polygon style="fill:#894995;stroke:#894995;" points="424.995,-639.95 428.478,-629.552 424.498,-634.975 424,-630 424,-630 424,-630 424.498,-634.975 419.522,-630.448 424.995,-639.95 424.995,-639.95"/>
</g>
<!-- MealType -->
<g id="node3" class="node"><title>MealType</title>
<polyline style="fill:none;stroke:black;" points="127,-838 268,-838 "/>
<path style="fill:none;stroke:black;" d="M268,-838C274,-838 280,-844 280,-850"/>
<polyline style="fill:none;stroke:black;" points="280,-850 280,-927 "/>
<path style="fill:none;stroke:black;" d="M280,-927C280,-933 274,-939 268,-939"/>
<polyline style="fill:none;stroke:black;" points="268,-939 127,-939 "/>
<path style="fill:none;stroke:black;" d="M127,-939C121,-939 115,-933 115,-927"/>
<polyline style="fill:none;stroke:black;" points="115,-927 115,-850 "/>
<path style="fill:none;stroke:black;" d="M115,-850C115,-844 121,-838 127,-838"/>
<text text-anchor="middle" x="197" y="-921.9" style="font-family:Times New Roman;font-size:14.00;">MealType</text>
<polyline style="fill:none;stroke:black;" points="115,-914 280,-914 "/>
<text text-anchor="start" x="122.5" y="-897.4" style="font-family:Times New Roman;font-size:14.00;">id :integer</text>
<text text-anchor="start" x="122.5" y="-880.4" style="font-family:Times New Roman;font-size:14.00;">name :string</text>
<text text-anchor="start" x="122.5" y="-863.4" style="font-family:Times New Roman;font-size:14.00;">created_at :datetime</text>
<text text-anchor="start" x="122.5" y="-846.4" style="font-family:Times New Roman;font-size:14.00;">updated_at :datetime</text>
</g>
<!-- Message -->
<g id="node5" class="node"><title>Message</title>
<polyline style="fill:none;stroke:black;" points="710,-68 851,-68 "/>
<path style="fill:none;stroke:black;" d="M851,-68C857,-68 863,-74 863,-80"/>
<polyline style="fill:none;stroke:black;" points="863,-80 863,-208 "/>
<path style="fill:none;stroke:black;" d="M863,-208C863,-214 857,-220 851,-220"/>
<polyline style="fill:none;stroke:black;" points="851,-220 710,-220 "/>
<path style="fill:none;stroke:black;" d="M710,-220C704,-220 698,-214 698,-208"/>
<polyline style="fill:none;stroke:black;" points="698,-208 698,-80 "/>
<path style="fill:none;stroke:black;" d="M698,-80C698,-74 704,-68 710,-68"/>
<text text-anchor="middle" x="780" y="-202.9" style="font-family:Times New Roman;font-size:14.00;">Message</text>
<polyline style="fill:none;stroke:black;" points="698,-195 863,-195 "/>
<text text-anchor="start" x="705.5" y="-177.9" style="font-family:Times New Roman;font-size:14.00;">id :integer</text>
<text text-anchor="start" x="705.5" y="-160.9" style="font-family:Times New Roman;font-size:14.00;">content :text</text>
<text text-anchor="start" x="705.5" y="-143.9" style="font-family:Times New Roman;font-size:14.00;">user_id :integer</text>
<text text-anchor="start" x="705.5" y="-126.9" style="font-family:Times New Roman;font-size:14.00;">posted_to :integer</text>
<text text-anchor="start" x="705.5" y="-109.9" style="font-family:Times New Roman;font-size:14.00;">read :boolean</text>
<text text-anchor="start" x="705.5" y="-92.9" style="font-family:Times New Roman;font-size:14.00;">created_at :datetime</text>
<text text-anchor="start" x="705.5" y="-75.9" style="font-family:Times New Roman;font-size:14.00;">updated_at :datetime</text>
</g>
<!-- User&#45;&gt;Message -->
<g id="edge12" class="edge"><title>User&#45;&gt;Message</title>
<path style="fill:none;stroke:#b0016f;" d="M755,-334C756,-331 757,-327 758,-324 766,-293 772,-260 775,-230"/>
<ellipse style="fill:none;stroke:#b0016f;" cx="753.405" cy="-338.255" rx="4.00001" ry="4.00001"/>
<polygon style="fill:#b0016f;stroke:#b0016f;" points="775.005,-229.95 780.478,-220.448 775.502,-224.975 776,-220 776,-220 776,-220 775.502,-224.975 771.522,-219.552 775.005,-229.95 775.005,-229.95"/>
<text text-anchor="middle" x="804" y="-310.9" style="font-family:Times New Roman;font-size:14.00;">messages_in</text>
</g>
<!-- User&#45;&gt;Message -->
<g id="edge14" class="edge"><title>User&#45;&gt;Message</title>
<path style="fill:none;stroke:#a5c809;" d="M648,-334C651,-324 654,-315 657,-306 667,-278 683,-252 701,-228"/>
<ellipse style="fill:none;stroke:#a5c809;" cx="646.97" cy="-338.119" rx="4.00001" ry="4.00001"/>
<polygon style="fill:#a5c809;stroke:#a5c809;" points="701,-228 710.6,-222.7 704,-224 707,-220 707,-220 707,-220 704,-224 703.4,-217.3 701,-228 701,-228"/>
<text text-anchor="middle" x="705" y="-310.9" style="font-family:Times New Roman;font-size:14.00;">messages_out</text>
</g>
<!-- PostRequirement -->
<g id="node6" class="node"><title>PostRequirement</title>
<polyline style="fill:none;stroke:black;" points="141,-0 306,-0 "/>
<path style="fill:none;stroke:black;" d="M306,-0C312,-0 318,-6 318,-12"/>
<polyline style="fill:none;stroke:black;" points="318,-12 318,-276 "/>
<path style="fill:none;stroke:black;" d="M318,-276C318,-282 312,-288 306,-288"/>
<polyline style="fill:none;stroke:black;" points="306,-288 141,-288 "/>
<path style="fill:none;stroke:black;" d="M141,-288C135,-288 129,-282 129,-276"/>
<polyline style="fill:none;stroke:black;" points="129,-276 129,-12 "/>
<path style="fill:none;stroke:black;" d="M129,-12C129,-6 135,-0 141,-0"/>
<text text-anchor="middle" x="223" y="-270.9" style="font-family:Times New Roman;font-size:14.00;">PostRequirement</text>
<polyline style="fill:none;stroke:black;" points="129,-263 318,-263 "/>
<text text-anchor="start" x="136.5" y="-245.9" style="font-family:Times New Roman;font-size:14.00;">id :integer</text>
<text text-anchor="start" x="136.5" y="-228.9" style="font-family:Times New Roman;font-size:14.00;">service_id :integer</text>
<text text-anchor="start" x="136.5" y="-211.9" style="font-family:Times New Roman;font-size:14.00;">provider_id :integer</text>
<text text-anchor="start" x="136.5" y="-194.9" style="font-family:Times New Roman;font-size:14.00;">city_id :integer</text>
<text text-anchor="start" x="136.5" y="-177.9" style="font-family:Times New Roman;font-size:14.00;">location_id :integer</text>
<text text-anchor="start" x="136.5" y="-160.9" style="font-family:Times New Roman;font-size:14.00;">food_type_id :integer</text>
<text text-anchor="start" x="136.5" y="-143.9" style="font-family:Times New Roman;font-size:14.00;">meal_type_id :integer</text>
<text text-anchor="start" x="136.5" y="-126.9" style="font-family:Times New Roman;font-size:14.00;">region_id :integer</text>
<text text-anchor="start" x="136.5" y="-109.9" style="font-family:Times New Roman;font-size:14.00;">no_of_persons :integer</text>
<text text-anchor="start" x="136.5" y="-92.9" style="font-family:Times New Roman;font-size:14.00;">budget :integer</text>
<text text-anchor="start" x="136.5" y="-75.9" style="font-family:Times New Roman;font-size:14.00;">details :text</text>
<text text-anchor="start" x="136.5" y="-58.9" style="font-family:Times New Roman;font-size:14.00;">user_id :integer</text>
<text text-anchor="start" x="136.5" y="-41.9" style="font-family:Times New Roman;font-size:14.00;">seeker_provider :boolean</text>
<text text-anchor="start" x="136.5" y="-24.9" style="font-family:Times New Roman;font-size:14.00;">created_at :datetime</text>
<text text-anchor="start" x="136.5" y="-7.9" style="font-family:Times New Roman;font-size:14.00;">updated_at :datetime</text>
</g>
<!-- User&#45;&gt;PostRequirement -->
<g id="edge10" class="edge"><title>User&#45;&gt;PostRequirement</title>
<path style="fill:none;stroke:#e8e703;" d="M512,-346C510,-344 509,-343 508,-342 456,-286 384,-237 327,-201"/>
<ellipse style="fill:none;stroke:#e8e703;" cx="514.439" cy="-348.927" rx="4.00002" ry="4.00002"/>
<polygon style="fill:#e8e703;stroke:#e8e703;" points="326.742,-200.856 320.185,-192.066 322.371,-198.428 318,-196 318,-196 318,-196 322.371,-198.428 315.815,-199.934 326.742,-200.856 326.742,-200.856"/>
</g>
<!-- Activity -->
<g id="node10" class="node"><title>Activity</title>
<polyline style="fill:none;stroke:black;" points="483,-68 639,-68 "/>
<path style="fill:none;stroke:black;" d="M639,-68C645,-68 651,-74 651,-80"/>
<polyline style="fill:none;stroke:black;" points="651,-80 651,-208 "/>
<path style="fill:none;stroke:black;" d="M651,-208C651,-214 645,-220 639,-220"/>
<polyline style="fill:none;stroke:black;" points="639,-220 483,-220 "/>
<path style="fill:none;stroke:black;" d="M483,-220C477,-220 471,-214 471,-208"/>
<polyline style="fill:none;stroke:black;" points="471,-208 471,-80 "/>
<path style="fill:none;stroke:black;" d="M471,-80C471,-74 477,-68 483,-68"/>
<text text-anchor="middle" x="561" y="-202.9" style="font-family:Times New Roman;font-size:14.00;">Activity</text>
<polyline style="fill:none;stroke:black;" points="471,-195 651,-195 "/>
<text text-anchor="start" x="479" y="-177.9" style="font-family:Times New Roman;font-size:14.00;">id :integer</text>
<text text-anchor="start" x="479" y="-160.9" style="font-family:Times New Roman;font-size:14.00;">service_id :integer</text>
<text text-anchor="start" x="479" y="-143.9" style="font-family:Times New Roman;font-size:14.00;">contact_id :integer</text>
<text text-anchor="start" x="479" y="-126.9" style="font-family:Times New Roman;font-size:14.00;">user_id :integer</text>
<text text-anchor="start" x="479" y="-109.9" style="font-family:Times New Roman;font-size:14.00;">seeked_shared :boolean</text>
<text text-anchor="start" x="479" y="-92.9" style="font-family:Times New Roman;font-size:14.00;">created_at :datetime</text>
<text text-anchor="start" x="479" y="-75.9" style="font-family:Times New Roman;font-size:14.00;">updated_at :datetime</text>
</g>
<!-- User&#45;&gt;Activity -->
<g id="edge16" class="edge"><title>User&#45;&gt;Activity</title>
<path style="fill:none;stroke:#ce75d3;" d="M619,-334C617,-325 615,-315 613,-306 607,-281 599,-254 591,-230"/>
<ellipse style="fill:none;stroke:#ce75d3;" cx="619.504" cy="-338.031" rx="4.00001" ry="4.00001"/>
<polygon style="fill:#ce75d3;stroke:#ce75d3;" points="590.874,-229.578 592.31,-218.707 589.437,-224.789 588,-220 588,-220 588,-220 589.437,-224.789 583.69,-221.293 590.874,-229.578 590.874,-229.578"/>
</g>
<!-- User&#45;&gt;Activity -->
<g id="edge18" class="edge"><title>User&#45;&gt;Activity</title>
<path style="fill:none;stroke:#0be992;" d="M560,-334C559,-331 559,-327 558,-324 556,-316 557,-313 558,-306 558,-282 558,-255 559,-230"/>
<ellipse style="fill:none;stroke:#0be992;" cx="560.504" cy="-338.031" rx="4.00001" ry="4.00001"/>
<polygon style="fill:#0be992;stroke:#0be992;" points="559,-230 563.5,-220 559,-225 559,-220 559,-220 559,-220 559,-225 554.5,-220 559,-230 559,-230"/>
<text text-anchor="middle" x="583" y="-310.9" style="font-family:Times New Roman;font-size:14.00;">contact</text>
</g>
<!-- Service -->
<g id="node7" class="node"><title>Service</title>
<polyline style="fill:none;stroke:black;" points="567,-838 708,-838 "/>
<path style="fill:none;stroke:black;" d="M708,-838C714,-838 720,-844 720,-850"/>
<polyline style="fill:none;stroke:black;" points="720,-850 720,-927 "/>
<path style="fill:none;stroke:black;" d="M720,-927C720,-933 714,-939 708,-939"/>
<polyline style="fill:none;stroke:black;" points="708,-939 567,-939 "/>
<path style="fill:none;stroke:black;" d="M567,-939C561,-939 555,-933 555,-927"/>
<polyline style="fill:none;stroke:black;" points="555,-927 555,-850 "/>
<path style="fill:none;stroke:black;" d="M555,-850C555,-844 561,-838 567,-838"/>
<text text-anchor="middle" x="637" y="-921.9" style="font-family:Times New Roman;font-size:14.00;">Service</text>
<polyline style="fill:none;stroke:black;" points="555,-914 720,-914 "/>
<text text-anchor="start" x="562.5" y="-897.4" style="font-family:Times New Roman;font-size:14.00;">id :integer</text>
<text text-anchor="start" x="562.5" y="-880.4" style="font-family:Times New Roman;font-size:14.00;">type :string</text>
<text text-anchor="start" x="562.5" y="-863.4" style="font-family:Times New Roman;font-size:14.00;">created_at :datetime</text>
<text text-anchor="start" x="562.5" y="-846.4" style="font-family:Times New Roman;font-size:14.00;">updated_at :datetime</text>
</g>
<!-- Region -->
<g id="node8" class="node"><title>Region</title>
<polyline style="fill:none;stroke:black;" points="749,-838 890,-838 "/>
<path style="fill:none;stroke:black;" d="M890,-838C896,-838 902,-844 902,-850"/>
<polyline style="fill:none;stroke:black;" points="902,-850 902,-927 "/>
<path style="fill:none;stroke:black;" d="M902,-927C902,-933 896,-939 890,-939"/>
<polyline style="fill:none;stroke:black;" points="890,-939 749,-939 "/>
<path style="fill:none;stroke:black;" d="M749,-939C743,-939 737,-933 737,-927"/>
<polyline style="fill:none;stroke:black;" points="737,-927 737,-850 "/>
<path style="fill:none;stroke:black;" d="M737,-850C737,-844 743,-838 749,-838"/>
<text text-anchor="middle" x="819" y="-921.9" style="font-family:Times New Roman;font-size:14.00;">Region</text>
<polyline style="fill:none;stroke:black;" points="737,-914 902,-914 "/>
<text text-anchor="start" x="744.5" y="-897.4" style="font-family:Times New Roman;font-size:14.00;">id :integer</text>
<text text-anchor="start" x="744.5" y="-880.4" style="font-family:Times New Roman;font-size:14.00;">name :string</text>
<text text-anchor="start" x="744.5" y="-863.4" style="font-family:Times New Roman;font-size:14.00;">created_at :datetime</text>
<text text-anchor="start" x="744.5" y="-846.4" style="font-family:Times New Roman;font-size:14.00;">updated_at :datetime</text>
</g>
<!-- FoodType -->
<g id="node9" class="node"><title>FoodType</title>
<polyline style="fill:none;stroke:black;" points="931,-838 1072,-838 "/>
<path style="fill:none;stroke:black;" d="M1072,-838C1078,-838 1084,-844 1084,-850"/>
<polyline style="fill:none;stroke:black;" points="1084,-850 1084,-927 "/>
<path style="fill:none;stroke:black;" d="M1084,-927C1084,-933 1078,-939 1072,-939"/>
<polyline style="fill:none;stroke:black;" points="1072,-939 931,-939 "/>
<path style="fill:none;stroke:black;" d="M931,-939C925,-939 919,-933 919,-927"/>
<polyline style="fill:none;stroke:black;" points="919,-927 919,-850 "/>
<path style="fill:none;stroke:black;" d="M919,-850C919,-844 925,-838 931,-838"/>
<text text-anchor="middle" x="1001" y="-921.9" style="font-family:Times New Roman;font-size:14.00;">FoodType</text>
<polyline style="fill:none;stroke:black;" points="919,-914 1084,-914 "/>
<text text-anchor="start" x="926.5" y="-897.4" style="font-family:Times New Roman;font-size:14.00;">id :integer</text>
<text text-anchor="start" x="926.5" y="-880.4" style="font-family:Times New Roman;font-size:14.00;">name :string</text>
<text text-anchor="start" x="926.5" y="-863.4" style="font-family:Times New Roman;font-size:14.00;">created_at :datetime</text>
<text text-anchor="start" x="926.5" y="-846.4" style="font-family:Times New Roman;font-size:14.00;">updated_at :datetime</text>
</g>
<!-- Provider -->
<g id="node11" class="node"><title>Provider</title>
<polyline style="fill:none;stroke:black;" points="1151,-838 1292,-838 "/>
<path style="fill:none;stroke:black;" d="M1292,-838C1298,-838 1304,-844 1304,-850"/>
<polyline style="fill:none;stroke:black;" points="1304,-850 1304,-927 "/>
<path style="fill:none;stroke:black;" d="M1304,-927C1304,-933 1298,-939 1292,-939"/>
<polyline style="fill:none;stroke:black;" points="1292,-939 1151,-939 "/>
<path style="fill:none;stroke:black;" d="M1151,-939C1145,-939 1139,-933 1139,-927"/>
<polyline style="fill:none;stroke:black;" points="1139,-927 1139,-850 "/>
<path style="fill:none;stroke:black;" d="M1139,-850C1139,-844 1145,-838 1151,-838"/>
<text text-anchor="middle" x="1221" y="-921.9" style="font-family:Times New Roman;font-size:14.00;">Provider</text>
<polyline style="fill:none;stroke:black;" points="1139,-914 1304,-914 "/>
<text text-anchor="start" x="1146.5" y="-897.4" style="font-family:Times New Roman;font-size:14.00;">id :integer</text>
<text text-anchor="start" x="1146.5" y="-880.4" style="font-family:Times New Roman;font-size:14.00;">type :string</text>
<text text-anchor="start" x="1146.5" y="-863.4" style="font-family:Times New Roman;font-size:14.00;">created_at :datetime</text>
<text text-anchor="start" x="1146.5" y="-846.4" style="font-family:Times New Roman;font-size:14.00;">updated_at :datetime</text>
</g>
<!-- ActiveRecord::Base -->
<g id="node15" class="node"><title>ActiveRecord::Base</title>
<ellipse style="fill:none;stroke:black;" cx="637" cy="-1025" rx="102.148" ry="18"/>
<text text-anchor="middle" x="637" y="-1020.9" style="font-family:Times New Roman;font-size:14.00;">ActiveRecord::Base</text>
</g>
<!-- ActiveRecord::Base&#45;&gt;City -->
<g id="edge6" class="edge"><title>ActiveRecord::Base&#45;&gt;City</title>
<path style="fill:none;stroke:black;" d="M605,-1001C582,-984 550,-960 522,-939"/>
<polygon style="fill:none;stroke:black;" points="602.9,-1003.8 613,-1007 607.1,-998.2 602.9,-1003.8"/>
</g>
<!-- ActiveRecord::Base&#45;&gt;MealType -->
<g id="edge8" class="edge"><title>ActiveRecord::Base&#45;&gt;MealType</title>
<path style="fill:none;stroke:black;" d="M596,-1004C575,-994 550,-983 526,-978 425,-953 390,-996 293,-960 280,-955 267,-947 255,-939"/>
<polygon style="fill:none;stroke:black;" points="594.44,-1007.14 605,-1008 597.283,-1000.74 594.44,-1007.14"/>
</g>
<!-- ActiveRecord::Base&#45;&gt;User -->
<g id="edge20" class="edge"><title>ActiveRecord::Base&#45;&gt;User</title>
<path style="fill:none;stroke:black;" d="M746,-1020C866,-1012 1048,-992 1092,-940 1207,-801 941,-675 771,-613"/>
<polygon style="fill:none;stroke:black;" points="745.602,-1016.52 736,-1021 746.299,-1023.49 745.602,-1016.52"/>
</g>
<!-- ActiveRecord::Base&#45;&gt;Message -->
<g id="edge22" class="edge"><title>ActiveRecord::Base&#45;&gt;Message</title>
<path style="fill:none;stroke:black;" d="M745,-1019C925,-1008 1275,-981 1312,-940 1536,-684 1063,-329 863,-197"/>
<polygon style="fill:none;stroke:black;" points="744.602,-1015.52 735,-1020 745.299,-1022.49 744.602,-1015.52"/>
</g>
<!-- ActiveRecord::Base&#45;&gt;PostRequirement -->
<g id="edge24" class="edge"><title>ActiveRecord::Base&#45;&gt;PostRequirement</title>
<path style="fill:none;stroke:black;" d="M596,-1004C575,-994 550,-983 526,-978 434,-955 169,-1009 106,-940 -54,-761 53,-464 141,-288"/>
<polygon style="fill:none;stroke:black;" points="594.44,-1007.14 605,-1008 597.283,-1000.74 594.44,-1007.14"/>
</g>
<!-- ActiveRecord::Base&#45;&gt;Service -->
<g id="edge26" class="edge"><title>ActiveRecord::Base&#45;&gt;Service</title>
<path style="fill:none;stroke:black;" d="M637,-997C637,-980 637,-959 637,-939"/>
<polygon style="fill:none;stroke:black;" points="633.5,-997 637,-1007 640.5,-997 633.5,-997"/>
</g>
<!-- ActiveRecord::Base&#45;&gt;Region -->
<g id="edge28" class="edge"><title>ActiveRecord::Base&#45;&gt;Region</title>
<path style="fill:none;stroke:black;" d="M669,-1001C692,-984 724,-960 752,-939"/>
<polygon style="fill:none;stroke:black;" points="666.9,-998.2 661,-1007 671.1,-1003.8 666.9,-998.2"/>
</g>
<!-- ActiveRecord::Base&#45;&gt;FoodType -->
<g id="edge30" class="edge"><title>ActiveRecord::Base&#45;&gt;FoodType</title>
<path style="fill:none;stroke:black;" d="M706,-1008C762,-993 842,-969 910,-940 913,-939 916,-937 919,-936"/>
<polygon style="fill:none;stroke:black;" points="705.119,-1004.61 696,-1010 706.492,-1011.47 705.119,-1004.61"/>
</g>
<!-- ActiveRecord::Base&#45;&gt;Activity -->
<g id="edge32" class="edge"><title>ActiveRecord::Base&#45;&gt;Activity</title>
<path style="fill:none;stroke:black;" d="M595,-1004C574,-994 549,-984 526,-978 482,-966 352,-977 327,-940 301,-901 245,-518 326,-342 356,-278 418,-227 471,-193"/>
<polygon style="fill:none;stroke:black;" points="593.44,-1007.14 604,-1008 596.283,-1000.74 593.44,-1007.14"/>
</g>
<!-- ActiveRecord::Base&#45;&gt;Provider -->
<g id="edge34" class="edge"><title>ActiveRecord::Base&#45;&gt;Provider</title>
<path style="fill:none;stroke:black;" d="M741,-1017C863,-1007 1057,-987 1125,-960 1138,-955 1151,-947 1163,-939"/>
<polygon style="fill:none;stroke:black;" points="740.602,-1013.52 731,-1018 741.299,-1020.49 740.602,-1013.52"/>
</g>
<!-- ActiveRecord::Base&#45;&gt;Location -->
<g id="edge36" class="edge"><title>ActiveRecord::Base&#45;&gt;Location</title>
<path style="fill:none;stroke:black;" d="M592,-1004C572,-995 547,-985 526,-978 455,-955 409,-997 364,-940 294,-850 345,-709 384,-630"/>
<polygon style="fill:none;stroke:black;" points="590.44,-1007.14 601,-1008 593.283,-1000.74 590.44,-1007.14"/>
</g>
</g>
</svg>
